<svg width="85" height="38" viewBox="0 0 85 38" fill="none" xmlns="http://www.w3.org/2000/svg">
<g filter="url(#filter0_d)">
<path d="M8.85254 24.5723H16.6094V28H4.39648V9.51562H8.85254V24.5723ZM26.0293 28C25.877 27.7207 25.7415 27.3102 25.623 26.7686C24.8359 27.7588 23.7357 28.2539 22.3223 28.2539C21.0273 28.2539 19.9271 27.8646 19.0215 27.0859C18.1159 26.2988 17.6631 25.3128 17.6631 24.1279C17.6631 22.6383 18.2132 21.5127 19.3135 20.751C20.4137 19.9893 22.0133 19.6084 24.1123 19.6084H25.4326V18.8848C25.4326 17.6237 24.8867 16.9932 23.7949 16.9932C22.7793 16.9932 22.2715 17.4925 22.2715 18.4912H17.9932C17.9932 17.1624 18.556 16.0833 19.6816 15.2539C20.8158 14.4245 22.2588 14.0098 24.0107 14.0098C25.7627 14.0098 27.1465 14.4372 28.1621 15.292C29.1777 16.1468 29.6982 17.319 29.7236 18.8086V24.8896C29.7406 26.1507 29.9352 27.1156 30.3076 27.7842V28H26.0293ZM23.3506 25.207C23.8838 25.207 24.3239 25.0928 24.6709 24.8643C25.0264 24.6357 25.2803 24.3776 25.4326 24.0898V21.8936H24.1885C22.6989 21.8936 21.9541 22.5622 21.9541 23.8994C21.9541 24.2887 22.0853 24.6061 22.3477 24.8516C22.61 25.0885 22.9443 25.207 23.3506 25.207ZM36.0332 14.2637L36.1729 15.876C37.1208 14.6318 38.4284 14.0098 40.0957 14.0098C41.526 14.0098 42.5924 14.4372 43.2949 15.292C44.0059 16.1468 44.374 17.4333 44.3994 19.1514V28H40.1084V19.3291C40.1084 18.6351 39.9688 18.1273 39.6895 17.8057C39.4102 17.4756 38.9023 17.3105 38.166 17.3105C37.3281 17.3105 36.7061 17.6406 36.2998 18.3008V28H32.0215V14.2637H36.0332ZM46.2402 21.0303C46.2402 18.8551 46.71 17.1413 47.6494 15.8887C48.5889 14.6361 49.9007 14.0098 51.585 14.0098C52.8122 14.0098 53.8447 14.4922 54.6826 15.457V8.5H58.9736V28H55.127L54.9111 26.5273C54.0309 27.6784 52.9137 28.2539 51.5596 28.2539C49.9261 28.2539 48.6312 27.6276 47.6748 26.375C46.7184 25.1224 46.2402 23.3408 46.2402 21.0303ZM50.5186 21.2969C50.5186 23.7344 51.2295 24.9531 52.6514 24.9531C53.5993 24.9531 54.2764 24.5553 54.6826 23.7598V18.5293C54.2933 17.7168 53.6247 17.3105 52.6768 17.3105C51.3564 17.3105 50.6413 18.377 50.5312 20.5098L50.5186 21.2969ZM65.918 28H61.627V14.2637H65.918V28ZM61.373 10.7217C61.373 10.1123 61.5931 9.61296 62.0332 9.22363C62.4733 8.83431 63.0446 8.63965 63.7471 8.63965C64.4495 8.63965 65.0208 8.83431 65.4609 9.22363C65.901 9.61296 66.1211 10.1123 66.1211 10.7217C66.1211 11.3311 65.901 11.8304 65.4609 12.2197C65.0208 12.609 64.4495 12.8037 63.7471 12.8037C63.0446 12.8037 62.4733 12.609 62.0332 12.2197C61.5931 11.8304 61.373 11.3311 61.373 10.7217ZM75.2109 28.2539C73.1035 28.2539 71.3981 27.6276 70.0947 26.375C68.7913 25.1139 68.1396 23.4762 68.1396 21.4619V21.1064C68.1396 19.7015 68.3978 18.4616 68.9141 17.3867C69.4388 16.3118 70.2005 15.4824 71.1992 14.8984C72.1979 14.306 73.3828 14.0098 74.7539 14.0098C76.6836 14.0098 78.207 14.6107 79.3242 15.8125C80.4414 17.0059 81 18.6732 81 20.8145V22.4775H72.4941C72.6465 23.2477 72.9808 23.8529 73.4971 24.293C74.0133 24.7331 74.682 24.9531 75.5029 24.9531C76.8571 24.9531 77.915 24.4792 78.6768 23.5312L80.6318 25.8418C80.0986 26.5781 79.3411 27.1663 78.3594 27.6064C77.3861 28.0381 76.3366 28.2539 75.2109 28.2539ZM74.7285 17.3105C73.4759 17.3105 72.7311 18.14 72.4941 19.7988H76.8105V19.4688C76.8275 18.7832 76.654 18.2542 76.29 17.8818C75.9261 17.501 75.4056 17.3105 74.7285 17.3105Z" fill="#37447E"/>
</g>
<defs>
<filter id="filter0_d" x="-1" y="0" width="87" height="46" filterUnits="userSpaceOnUse" color-interpolation-filters="sRGB">
<feFlood flood-opacity="0" result="BackgroundImageFix"/>
<feColorMatrix in="SourceAlpha" type="matrix" values="0 0 0 0 0 0 0 0 0 0 0 0 0 0 0 0 0 0 127 0"/>
<feOffset dy="4"/>
<feGaussianBlur stdDeviation="2"/>
<feColorMatrix type="matrix" values="0 0 0 0 0 0 0 0 0 0 0 0 0 0 0 0 0 0 0.25 0"/>
<feBlend mode="normal" in2="BackgroundImageFix" result="effect1_dropShadow"/>
<feBlend mode="normal" in="SourceGraphic" in2="effect1_dropShadow" result="shape"/>
</filter>
</defs>
</svg>
